<svg width="244" height="261" viewBox="0 0 244 261" fill="none" xmlns="http://www.w3.org/2000/svg">
<path d="M174.286 0C169.663 0 165.23 1.83321 161.962 5.09634C158.693 8.35948 156.857 12.7852 156.857 17.4V95.7H21.7857C16.0078 95.7 10.4665 97.9915 6.38089 102.07C2.29527 106.149 6.35263e-07 111.682 6.35263e-07 117.45V134.85C-0.00103931 138.182 1.27477 141.389 3.56587 143.812C5.85696 146.235 8.98977 147.692 12.322 147.883C17.4355 165.887 27.7244 182 41.9157 194.228C46.6999 198.351 51.8936 202.023 57.4446 205.155L44.4167 231.159C43.6063 232.777 42.4386 235.1 41.5584 237.536C40.687 239.946 39.7284 243.435 40.1816 247.193C40.7044 251.543 43.0747 255.536 47.4319 258.068C51.2661 260.278 55.9893 261 61 261H183C190.189 261 196.655 257.503 201.143 253.013C205.631 248.533 209.143 242.077 209.143 234.9V165.3C209.143 162.968 210.494 159.845 213.021 156.391C221.542 155.439 229.413 151.384 235.128 145.003C240.843 138.621 244.002 130.36 244 121.8V17.4C244 12.7852 242.164 8.35948 238.895 5.09634C235.627 1.83321 231.194 0 226.571 0H174.286ZM73.3394 212.306C83.3893 215.755 93.9442 217.511 104.571 217.5C141.346 217.5 175.279 199.395 191.714 168.937V234.9C191.714 236.423 190.86 238.667 188.821 240.712C186.773 242.756 184.525 243.6 183 243.6H61C59.7277 243.6 58.7256 243.53 57.9587 243.426C58.4641 242.043 59.1961 240.555 60.0763 238.789L73.3394 212.306ZM169.929 139.2C172.839 143.072 177.022 145.942 181.85 147.204C172.639 179.107 141.372 200.1 104.571 200.1C84.6157 200.1 66.4029 192.661 52.5646 180.412C40.2899 169.566 31.7266 155.154 28.0774 139.2H169.929ZM166.007 130.5H17.4286V117.45C17.4286 116.296 17.8876 115.19 18.7048 114.374C19.5219 113.558 20.6301 113.1 21.7857 113.1H165.571V126.15C165.571 127.638 165.72 129.091 166.007 130.5ZM226.571 121.8C226.571 126.415 224.735 130.841 221.467 134.104C218.198 137.367 213.765 139.2 209.143 139.2H187.357C183.89 139.2 180.566 137.825 178.114 135.378C175.663 132.93 174.286 129.611 174.286 126.15V17.4H226.571V121.8Z" fill="white"/>
</svg>
