<?xml version="1.0" encoding="UTF-8" standalone="no"?>
<svg width="67.462212pt" height="155.23512pt" version="1.2" viewBox="0 0 33.731106 77.617562" id="svg2371" xml:space="preserve" xmlns="http://www.w3.org/2000/svg" xmlns:svg="http://www.w3.org/2000/svg">
  <g style="fill:none;stroke:#ffffff;stroke-width:0.5;stroke-linecap:butt;stroke-linejoin:miter;stroke-dasharray:none;stroke-opacity:1">
    <path d="m 0.15044848,77.373441 33.18799952,0.0937 0.24219,-77.21900024 -33.19899952,-0.0977 z" id="path119" style="stroke-width:1"/>
    <path d="m 0.6668556,26.772637 h 3.189296 V 38.458444 H 0.63487882" id="path2371"/>
    <path d="M 4.2180532,33.34205 H 14.267916" id="path2372"/>
    <path d="M 0.65326489,20.865666 H 14.854828 v -4.828 H 0.66996826" id="path2373"/>
    <path d="m 14.319747,21.002629 v 1.921736 h 1.202869 v 7.469855 h -1.133511 v 6.103983 h 1.205372 v 6.736466 h -1.059145 v 2.131061" id="path2374"/>
    <path d="M 0.60455387,46.652042 H 3.7567009" id="path2375"/>
    <path d="M 15.496353,47.608072 H 3.8505274 V 45.516458 H 15.554866 v 8.768414 h -3.166095 v -6.545921" id="path2376"/>
    <path d="m 14.769848,54.542749 v 3.768712" id="path2377"/>
    <path d="M 14.712369,56.247161 H 0.65815226" id="path2378"/>
    <path d="M 15.670341,64.502029 H 0.55665908" id="path2379"/>
    <path d="M 0.46979438,68.271255 H 15.696103" id="path2380"/>
    <path d="M 15.695973,69.922594 V 58.302656 h -3.431738 v 8.391701 h 0.786831 v 1.403299" id="path2381"/>
    <path d="m 11.369308,68.527965 v 3.420994 H 7.0968851 v -3.355616" id="path2382"/>
    <path d="m 9.7028265,68.46324 v 3.344355" id="path2383"/>
    <path d="M 6.6316219,68.119534 V 64.827866" id="path2384"/>
    <path d="m 3.7050192,64.609995 v 3.407659" id="path2385"/>
    <path d="M 5.1511676,77.079675 V 74.885659 H 13.84424" id="path2386"/>
    <path d="m 14.140694,77.165764 v -2.886732 h 4.971742 v -2.291883" id="path2387"/>
    <path d="m 16.828968,74.570696 v 2.562443" id="path2388"/>
    <path d="m 25.142477,77.529533 v -9.269798 h -7.210159 v 3.703984 h 15.15705" id="path2389"/>
    <path d="M 21.214924,71.6784 V 68.556578" id="path2390"/>
    <path d="M 27.082887,71.722931 V 66.666784" id="path2391"/>
    <path d="M 32.983473,66.579142 H 19.488375 V 50.236151" id="path2392"/>
    <path d="m 19.802563,52.194814 h 13.24525" id="path2393"/>
    <path d="m 25.308698,50.731706 v -0.64482 h -6.576085 v -8.346517" id="path2394"/>
    <path d="m 18.987511,43.10004 h 6.414655" id="path2395"/>
    <path d="M 20.369191,42.911554 V 40.443611" id="path2396"/>
    <path d="M 25.393233,27.157454 V 40.430535 H 18.867765 V 27.172471 Z" id="path2397"/>
    <path d="m 25.204357,31.006945 h -6.05645" id="path2398"/>
    <path d="M 19.016121,36.462722 H 25.17756" id="path2399"/>
    <path d="M 21.124046,36.44188 V 31.066754" id="path2400"/>
    <path d="M 21.115373,33.870373 H 33.144775" id="path2401"/>
    <path d="m 33.243161,40.258361 h -4.109697 v -14.37022 h 4.25883" id="path2402"/>
    <path d="M 25.349865,24.392929 H 18.98311" id="path2403"/>
    <path d="m 18.773133,25.924519 v -8.418757 h 6.664503 v -0.590835" id="path2404"/>
    <path d="M 19.357236,15.761737 V 17.48013" id="path2405"/>
    <path d="m 5.5805713,18.165468 v 2.395964 m -0.0022,-2.272722 v 2.395964" id="path2407"/>
    <path d="m 11.895104,18.1655 v 2.395964 m -0.0022,-2.272722 v 2.395964" id="path2407-3"/>
    <path d="M 33.237709,15.467262 H 18.916287 V 0.60196027" id="path2408"/>
    <path d="M 0.56670367,11.896138 H 2.7680153 V 12.85419 H 14.48787 v -0.863787 h 4.228567" id="path2409"/>
  </g>
</svg>
