<?xml version="1.0" encoding="UTF-8" standalone="no"?>
<svg width="67.462212pt" height="155.23512pt" version="1.2" viewBox="0 0 33.731106 77.617562" id="svg2371" xml:space="preserve" xmlns="http://www.w3.org/2000/svg" xmlns:svg="http://www.w3.org/2000/svg">
  <path d="m 0.15044848,77.373441 33.18799952,0.0937 0.24219,-77.21900024 -33.19899952,-0.0977 z" id="path119" style="fill:none;fill-rule:evenodd;stroke:#fefefe;stroke-width:1.00000001;stroke-dasharray:none;stroke-opacity:1"/>
  <path style="fill:#ffffff;stroke:#fefefe;stroke-width:0.75000001;stroke-linecap:butt;stroke-linejoin:miter;stroke-dasharray:none;stroke-opacity:1" d="M 0.59267704,3.6598058 H 33.160731" id="path2409"/>
  <path style="fill:#ffffff;stroke:#fefefe;stroke-width:0.75;stroke-linecap:butt;stroke-linejoin:miter;stroke-dasharray:none;stroke-opacity:1" d="M 27.855002,0.47144659 V 3.6358924" id="path2410"/>
  <path style="fill:#ffffff;stroke:#fefefe;stroke-width:0.75;stroke-linecap:butt;stroke-linejoin:miter;stroke-dasharray:none;stroke-opacity:1" d="M 31.084373,0.55542056 V 3.5230199" id="path2411"/>
  <path style="fill:none;stroke:#fefefe;stroke-width:0.75;stroke-linecap:butt;stroke-linejoin:miter;stroke-dasharray:none;stroke-opacity:1" d="M 28.918673,3.8147258 V 12.471174 H 27.96956 v 0.607646 h -1.870107 v 0.412742 H 24.318635 V 13.07882 h -6.62941 v 0.412742 h -1.6984 V 13.07882 H 9.7630133 v 0.412742 H 8.052432 V 13.07882 H 6.037056 V 12.471174 H 5.0077267 V 3.9168424" id="path2412"/>
  <path style="fill:none;stroke:#fefefe;stroke-width:0.75;stroke-linecap:butt;stroke-linejoin:miter;stroke-dasharray:none;stroke-opacity:1" d="m 28.918446,45.311352 v -8.656448 h -0.949113 v -0.607646 h -1.870107 v -0.412742 h -1.780818 v 0.412742 h -6.629409 v -0.412742 h -1.6984 v 0.412742 H 9.7627866 V 35.634516 H 8.0522053 v 0.412742 h -2.015376 v 0.607646 H 5.0075 v 8.554331" id="path2412-6"/>
  <path style="fill:none;stroke:#fefefe;stroke-width:0.75;stroke-linecap:butt;stroke-linejoin:miter;stroke-dasharray:none;stroke-opacity:1" d="M 30.558792,32.532054 H 3.5104656 V 16.540295 H 30.55526 Z" id="path2413"/>
  <path style="fill:none;stroke:#fefefe;stroke-width:0.75;stroke-linecap:butt;stroke-linejoin:miter;stroke-dasharray:none;stroke-opacity:1" d="M 16.973228,32.384799 V 16.774625" id="path2414"/>
  <circle style="fill:none;stroke:#fefefe;stroke-width:0.705;stroke-linecap:butt;stroke-linejoin:miter;stroke-dasharray:none;stroke-opacity:1" id="path2415" r="1.9243569" cy="24.43722" cx="16.953798"/>
  <path style="fill:none;stroke:#fefefe;stroke-width:0.75;stroke-linecap:butt;stroke-linejoin:miter;stroke-dasharray:none;stroke-opacity:1" d="M 0.47862442,45.546191 H 33.03731" id="path2416"/>
  <path style="fill:none;stroke:#fefefe;stroke-width:0.75;stroke-linecap:butt;stroke-linejoin:miter;stroke-dasharray:none;stroke-opacity:1" d="m 3.7919074,18.191251 h 1.8525457 c 7.9747189,0 7.5721789,12.683961 0,12.683961 H 3.6856153" id="path2417"/>
  <path style="fill:none;stroke:#fefefe;stroke-width:0.75;stroke-linecap:butt;stroke-linejoin:miter;stroke-dasharray:none;stroke-opacity:1" d="m 3.6599923,26.520607 h 5.8304335 c 2.7135612,0 2.8183192,-4.019496 0,-4.019496 H 3.8354966" id="path2418"/>
  <path style="fill:none;stroke:#fefefe;stroke-width:0.75;stroke-linecap:butt;stroke-linejoin:miter;stroke-dasharray:none;stroke-opacity:1" d="m 9.5221729,22.664207 v 3.551224" id="path2419"/>
  <path style="fill:none;stroke:#fefefe;stroke-width:0.75;stroke-linecap:butt;stroke-linejoin:miter;stroke-dasharray:none;stroke-opacity:1" d="m 30.386753,18.1915 h -1.852546 c -7.974719,0 -7.572179,12.683961 0,12.683961 h 1.958838" id="path2417-7"/>
  <path style="fill:none;stroke:#fefefe;stroke-width:0.75;stroke-linecap:butt;stroke-linejoin:miter;stroke-dasharray:none;stroke-opacity:1" d="m 30.518668,26.520856 h -5.830433 c -2.713562,0 -2.81832,-4.019496 0,-4.019496 h 5.654929" id="path2418-5"/>
  <path style="fill:none;stroke:#fefefe;stroke-width:0.75;stroke-linecap:butt;stroke-linejoin:miter;stroke-dasharray:none;stroke-opacity:1" d="M 24.656488,22.664456 V 26.21568" id="path2419-3"/>
  <path style="fill:none;stroke:#fefefe;stroke-width:0.75;stroke-linecap:butt;stroke-linejoin:miter;stroke-dasharray:none;stroke-opacity:1" d="M 32.936385,71.68524 H 16.821184" id="path2420"/>
  <path style="fill:none;stroke:#fefefe;stroke-width:0.75;stroke-linecap:butt;stroke-linejoin:miter;stroke-dasharray:none;stroke-opacity:1" d="m 16.797523,65.030992 h 1.850603 v 6.39783" id="path2421"/>
  <path style="fill:none;stroke:#fefefe;stroke-width:0.75;stroke-linecap:butt;stroke-linejoin:miter;stroke-dasharray:none;stroke-opacity:1" d="M 16.638323,77.088649 V 61.237583 h 16.432701" id="path2422"/>
  <path style="fill:none;stroke:#fefefe;stroke-width:0.75;stroke-linecap:butt;stroke-linejoin:miter;stroke-dasharray:none;stroke-opacity:1" d="m 20.52239,61.162867 v -5.978354 h 0.655575 V 51.569722 H 20.52239 v -5.837418" id="path2423"/>
  <path style="fill:none;stroke:#fefefe;stroke-width:0.75;stroke-linecap:butt;stroke-linejoin:miter;stroke-dasharray:none;stroke-opacity:1" d="M 33.230481,53.335969 H 21.457915" id="path2424"/>
  <path style="fill:none;stroke:#fefefe;stroke-width:0.75;stroke-linecap:butt;stroke-linejoin:miter;stroke-dasharray:none;stroke-opacity:1" d="m 5.7699049,45.671096 v 1.712618 h 9.1530971 v -1.636493" id="path2425"/>
  <path style="fill:none;stroke:#fefefe;stroke-width:0.75;stroke-linecap:butt;stroke-linejoin:miter;stroke-dasharray:none;stroke-opacity:1" d="m 16.619934,45.679969 v 2.742791 h 3.813212" id="path2426"/>
  <path style="fill:none;stroke:#fefefe;stroke-width:0.75;stroke-linecap:butt;stroke-linejoin:miter;stroke-dasharray:none;stroke-opacity:1" d="M 5.8631359,77.137774 V 74.371192 H 13.84358 v 2.593234" id="path2427"/>
  <path style="fill:none;stroke:#fefefe;stroke-width:0.75;stroke-linecap:butt;stroke-linejoin:miter;stroke-dasharray:none;stroke-opacity:1" d="m 6.8335095,67.865726 v 3.925346 H 13.711256 V 60.056314" id="path2428"/>
  <path style="fill:none;stroke:#fefefe;stroke-width:0.75;stroke-linecap:butt;stroke-linejoin:miter;stroke-dasharray:none;stroke-opacity:1" d="M 5.9685832,60.025324 H 13.983619 V 49.754996 H 5.9148307 V 67.78857 h 7.6535563" id="path2429"/>
  <path style="fill:none;stroke:#fefefe;stroke-width:0.75;stroke-linecap:butt;stroke-linejoin:miter;stroke-dasharray:none;stroke-opacity:1" d="M 10.230847,71.62956 V 68.11803" id="path2431"/>
  <path style="fill:none;stroke:#fefefe;stroke-width:0.75;stroke-linecap:butt;stroke-linejoin:miter;stroke-dasharray:none;stroke-opacity:1" d="M 10.045414,68.92959 H 6.9650617" id="path2432"/>
  <path style="fill:none;stroke:#fefefe;stroke-width:0.75;stroke-linecap:butt;stroke-linejoin:miter;stroke-dasharray:none;stroke-opacity:1" d="M 6.1888657,63.915949 H 13.346562" id="path2433"/>
  <path style="fill:none;stroke:#fefefe;stroke-width:0.75;stroke-linecap:butt;stroke-linejoin:miter;stroke-dasharray:none;stroke-opacity:1" d="M 6.1537594,52.934366 H 11.444392 V 50.036235" id="path2434"/>
</svg>
