<?xml version="1.0" encoding="UTF-8" standalone="no"?>
<svg width="444.25552pt" height="283.24118pt" version="1.2" viewBox="0 0 222.12777 141.62059" id="svg2371" xml:space="preserve" xmlns="http://www.w3.org/2000/svg" xmlns:svg="http://www.w3.org/2000/svg">
  <defs id="defs1"/>
  <path d="m 0.5020607,129.05583 4.2031,0.0117 -2.2656,11.6016 100.1187993,0.1875 0.13845,-29.89428 0.008,-1.5586 0.0664,-15.488005 0.125,-32.887 11.5,0.0508 -0.11719,33.039 -0.0312,7.793005 23.621,0.20312 0.17969,-31.422005 -8.2617,-0.0352 0.043,-10.855 4.1055,0.0234 -0.0352,6.8633 33.65601,0.12891 0.023,-7.1797 4.6055,0.0234 -0.043,10.832 -8.6094,-0.0234 -0.1094,31.891005 22.688,0.0703 0.031,-8.398405 0.1094,-34.48 12.625,0.0351 -0.066,34.613 -0.059,15.484005 -0.043,10.785 22.594,0.29688 0.3242,-119.9100046 -22.438,-0.0703 -0.1641,52.8236296 h -12.336 l 0.023,-8.03123 -71.87575,-0.42577 -0.0234,8.457 -11.7969,-0.0468 0.1875,-41.07 -0.008,-11.9179996 -23.354996,-0.0742 -0.26172,73.6989996 -5.886703,-0.0234 -0.13281,36.762005 -72.9806803,-0.26175 z" fill="#2b2b2e" id="path112" style="fill:none;fill-rule:evenodd;stroke:#ffffff;stroke-opacity:1"/>
  <path style="fill:none;stroke:#ffffff;stroke-width:0.75;stroke-opacity:1" d="M 80.000406,9.0335867 H 103.01328" id="path2419"/>
  <path style="fill:none;stroke:#ffffff;stroke-width:0.75;stroke-opacity:1" d="M 92.063972,0.74474391 V 9.1170494" id="path2420"/>
  <path style="fill:none;stroke:#ffffff;stroke-width:0.75;stroke-opacity:1" d="M 90.262926,9.1498637 V 14.351836" id="path2421"/>
  <path style="fill:none;stroke:#ffffff;stroke-width:0.75;stroke-opacity:1" d="m 80.096485,14.505066 h 15.280058 v 39.25357 h -15.58361" id="path2422"/>
  <path style="fill:none;stroke:#ffffff;stroke-width:0.75;stroke-opacity:1" d="m 90.148371,54.097145 v 4.512634" id="path2423"/>
  <path style="fill:none;stroke:#ffffff;stroke-width:0.75;stroke-opacity:1" d="m 79.905561,58.62422 h 19.64238 l 0,15.701005 H 79.236614" id="path2424"/>
  <path style="fill:none;stroke:#ffffff;stroke-width:0.75;stroke-opacity:1" d="M 79.734865,67.039063 H 99.559619" id="path2434"/>
  <path style="fill:none;stroke:#ffffff;stroke-width:0.75;stroke-opacity:1" d="M 79.773253,43.19597 H 95.382411" id="path2435"/>
  <path style="fill:none;stroke:#ffffff;stroke-width:0.75;stroke-opacity:1" d="M 95.076194,39.162275 H 80.045218" id="path2436"/>
  <path style="fill:none;stroke:#ffffff;stroke-width:0.75;stroke-opacity:1" d="M 79.996885,28.646013 H 95.196228" id="path2438"/>
  <path style="fill:none;stroke:#ffffff;stroke-width:0.75;stroke-opacity:1" d="M 95.193599,21.41882 H 79.983846" id="path2439"/>
  <path style="fill:none;stroke:#ffffff;stroke-width:0.75;stroke-opacity:1" d="m 85.446801,21.596937 v 2.175571 h 3.461921 V 21.59557" id="path2440"/>
  <path style="fill:none;stroke:#ffffff;stroke-width:0.75;stroke-opacity:1" d="M 98.312984,9.3112592 V 47.620903 h 4.702776" id="path2441"/>
  <path style="fill:none;stroke:#ffffff;stroke-width:0.75;stroke-opacity:1" d="M 102.71407,41.97542 H 98.497908" id="path2442"/>
  <path style="fill:none;stroke:#ffffff;stroke-width:0.75;stroke-opacity:1" d="m 98.405568,34.987088 h 4.406702" id="path2443"/>
  <path style="fill:none;stroke:#ffffff;stroke-width:0.75;stroke-opacity:1" d="M 102.87041,25.38757 H 98.346449" id="path2444"/>
  <path style="fill:none;stroke:#ffffff;stroke-width:0.75;stroke-opacity:1" d="m 98.330571,20.679663 h 4.836399" id="path2445"/>
  <path style="fill:none;stroke:#ffffff;stroke-width:0.75;stroke-opacity:1" d="m 98.440746,14.869287 h 4.678104" id="path2446"/>
  <path style="fill:none;stroke:#ffffff;stroke-width:0.75;stroke-opacity:1" d="m 55.580713,111.19319 -2.12e-4,26.04739 H 24.241172" id="path2450"/>
  <path style="fill:none;stroke:#ffffff;stroke-width:0.75;stroke-opacity:1" d="m 15.845031,140.38181 0,-29.34262" id="path2455"/>
  <path style="fill:none;stroke:#ffffff;stroke-width:0.75;stroke-opacity:1" d="m 12.746809,111.1794 v 17.76429 H 4.8449598" id="path2457"/>
  <path style="fill:none;stroke:#ffffff;stroke-width:0.75;stroke-opacity:1" d="M 9.0700026,128.95119 V 124.4678 H 12.511048" id="path2458"/>
  <path style="fill:none;stroke:#ffffff;stroke-width:0.75;stroke-opacity:1" d="m 34.91799,111.27947 v 1.37798 h 6.997636 v -1.60111" id="path2462"/>
  <path style="fill:none;stroke:#ffffff;stroke-width:0.75;stroke-opacity:1" d="m 35.618544,112.6573 8.222561,2.69036" id="path2463"/>
  <path style="fill:none;stroke:#ffffff;stroke-width:0.75;stroke-opacity:1" d="m 43.870673,111.35681 0,25.48902" id="path2461-6"/>
  <path style="fill:none;stroke:#ffffff;stroke-width:0.75;stroke-opacity:1" d="m 34.918001,137.18245 v -1.89 h 6.997636 v 1.60111" id="path2462-7"/>
  <path style="fill:none;stroke:#ffffff;stroke-width:0.75;stroke-opacity:1" d="m 35.618554,135.2926 8.222562,-2.69036" id="path2463-5"/>
  <path style="fill:none;stroke:#ffffff;stroke-width:0.75;stroke-opacity:1" d="m 84.950447,128.93732 5.4e-5,8.18467 -18.283364,0" id="path2464"/>
  <path style="fill:none;stroke:#ffffff;stroke-width:0.75;stroke-opacity:1" d="m 87.667681,123.92922 -21.268676,0" id="path2466"/>
  <path style="fill:none;stroke:#ffffff;stroke-width:0.75;stroke-opacity:1" d="m 66.610761,111.3699 0,29.48615" id="path2467"/>
  <path style="fill:none;stroke:#ffffff;stroke-width:0.75;stroke-opacity:1" d="M 74.11971,118.85965 H 87.829262" id="path2471"/>
  <path style="fill:none;stroke:#ffffff;stroke-width:0.75;stroke-opacity:1" d="m 73.907966,92.139816 13.9588,-1.9e-4 0,36.867124" id="path2480"/>
  <path style="fill:none;stroke:#ffffff;stroke-width:0.761684;stroke-opacity:1" d="M 102.37296,123.10313 H 95.825503" id="path2481"/>
  <path style="fill:none;stroke:#ffffff;stroke-width:0.75;stroke-opacity:1" d="m 96.200193,122.90066 0,-5.28916" id="path2482"/>
  <path style="fill:none;stroke:#ffffff;stroke-width:0.75;stroke-opacity:1" d="m 126.02895,92.821441 v 8.979109" id="path2485"/>
  <path style="fill:none;stroke:#ffffff;stroke-width:0.75;stroke-opacity:1" d="m 114.3899,92.657129 23.29052,0" id="path2486"/>
  <path style="fill:none;stroke:#ffffff;stroke-width:0.755885;stroke-opacity:1" d="m 137.90091,87.903122 h -8.61519" id="path2487"/>
  <path style="fill:none;stroke:#ffffff;stroke-width:0.75;stroke-opacity:1" d="m 122.47397,64.682761 3.09442,0 0,-3.726588 h -10.8444" id="path2488"/>
  <path style="fill:none;stroke:#ffffff;stroke-width:0.75;stroke-opacity:1" d="m 118.77591,60.949355 v 4.868367" id="path2489"/>
  <path style="fill:none;stroke:#ffffff;stroke-width:0.75;stroke-opacity:1" d="m 122.45873,61.014857 0,31.390385" id="path2490"/>
  <path style="fill:none;stroke:#ffffff;stroke-width:0.75;stroke-opacity:1" d="m 122.47924,65.776764 h -7.7371" id="path2491"/>
  <path style="fill:none;stroke:#ffffff;stroke-width:0.75;stroke-opacity:1" d="m 140.64009,45.615609 v 7.899172" id="path2493"/>
  <path style="fill:none;stroke:#ffffff;stroke-width:0.75;stroke-opacity:1" d="m 125.51434,45.51245 v 8.0109" id="path2495"/>
  <path style="fill:none;stroke:#ffffff;stroke-width:0.992822;stroke-opacity:1" d="m 115.0449,53.614663 h 71.52075" id="path2496"/>
  <path style="fill:none;stroke:#ffffff;stroke-width:0.75;stroke-opacity:1" d="M 161.38746,53.573446 V 45.742059" id="path2497"/>
  <path style="fill:none;stroke:#ffffff;stroke-width:0.75;stroke-opacity:1" d="m 174.31703,45.927717 0,7.727818" id="path2502"/>
  <path style="fill:none;stroke:#ffffff;stroke-width:0.75;stroke-opacity:1" d="m 199.33737,53.723845 7.01962,1.56e-4 0.002,-12.742594 h -3.65538 v -1.892696 h -3.31832" id="path2504"/>
  <path style="fill:none;stroke:#ffffff;stroke-width:0.75;stroke-opacity:1" d="m 199.37423,50.257423 h 3.3504 v 3.28852" id="path2505"/>
  <path style="fill:none;stroke:#ffffff;stroke-width:0.75;stroke-opacity:1" d="m 199.4162,14.038621 h 21.86303" id="path2507"/>
  <path style="fill:none;stroke:#ffffff;stroke-width:0.75;stroke-opacity:1" d="M 217.87474,13.884657 V 12.137545 L 216.42733,8.9272218 V 2.6978282 h 5.15351" id="path2508"/>
  <path style="fill:none;stroke:#ffffff;stroke-width:0.75;stroke-opacity:1" d="M 216.98218,1.2358839 V 2.6539746" id="path2509"/>
  <path style="fill:none;stroke:#ffffff;stroke-width:0.75;stroke-opacity:1" d="m 199.54598,2.9175726 3.73612,0 v 6.3426951 l -0.6945,2.4565623 0,2.122901" id="path2510"/>
  <path style="fill:none;stroke:#ffffff;stroke-width:0.75;stroke-opacity:1" d="M 202.42128,1.1712952 V 2.7279775" id="path2511"/>
  <path style="fill:none;stroke:#ffffff;stroke-width:0.75;stroke-opacity:1" d="m 198.90678,59.463151 22.25099,0" id="path2513"/>
  <path style="fill:none;stroke:#ffffff;stroke-width:0.75;stroke-opacity:1" d="m 199.16055,66.729658 h 21.93999" id="path2514"/>
  <path style="fill:none;stroke:#ffffff;stroke-width:0.75;stroke-opacity:1" d="m 221.46692,79.460447 h -3.34775 v 9.125055 h 3.01582" id="path2515"/>
  <path style="fill:none;stroke:#ffffff;stroke-width:0.75;stroke-opacity:1" d="M 221.23415,92.95477 H 198.7964" id="path2516"/>
  <path style="fill:none;stroke:#ffffff;stroke-width:0.75;stroke-opacity:1" d="m 214.6852,93.239084 v 5.4459 h 6.50411" id="path2517"/>
  <path style="fill:none;stroke:#ffffff;stroke-width:0.75;stroke-opacity:1" d="m 217.83023,93.153325 v 2.791373 h 3.23911" id="path2518"/>
  <path style="fill:none;stroke:#ffffff;stroke-width:0.75;stroke-opacity:1" d="m 217.20821,98.976464 0,16.844706" id="path2519"/>
  <path style="fill:none;stroke:#ffffff;stroke-width:0.664837;stroke-opacity:1" d="m 203.79506,115.75874 h 17.36258" id="path2520"/>
  <path style="fill:none;stroke:#ffffff;stroke-width:0.75;stroke-opacity:1" d="m 172.26596,70.472211 0,17.775996" id="path2521"/>
  <path style="fill:none;stroke:#ffffff;stroke-width:0.75;stroke-opacity:1" d="m 171.98997,79.436185 h -8.21095" id="path2522"/>
  <path style="fill:none;stroke:#ffffff;stroke-width:0.75;stroke-opacity:1" d="m 172.10023,87.873899 h -8.35048" id="path2525"/>
  <path style="fill:none;stroke:#ffffff;stroke-width:0.75;stroke-opacity:1" d="M 163.75355,92.936417 H 185.858" id="path2526"/>
  <path style="fill:none;stroke:#ffffff;stroke-width:0.75;stroke-opacity:1" d="m 174.24042,93.211218 0,8.737282" id="path2533"/>
  <path style="fill:none;stroke:#ffffff;stroke-width:0.75;stroke-opacity:1" d="M 186.16894,87.931694 H 176.593 l 8e-5,-28.501519 h 9.71025" id="path2537"/>
  <path style="fill:none;stroke:#ffffff;stroke-width:0.75;stroke-opacity:1" d="m 176.83684,65.343253 h 8.99056" id="path2538"/>
  <path style="fill:none;stroke:#ffffff;stroke-width:0.75;stroke-opacity:1" d="M 186.01485,69.175899 H 176.7222" id="path2539"/>
  <path style="fill:none;stroke:#ffffff;stroke-width:0.75;stroke-opacity:1" d="m 176.73803,73.509047 h 9.27379" id="path2540"/>
  <path style="fill:none;stroke:#ffffff;stroke-width:0.75;stroke-opacity:1" d="m 181.8152,69.478524 v 3.817474" id="path2541"/>
  <path style="fill:none;stroke:#ffffff;stroke-width:0.75;stroke-opacity:1" d="m 176.84182,80.383476 9.13854,0" id="path2544"/>
  <path style="fill:none;stroke:#ffffff;stroke-width:0.75;stroke-opacity:1" d="m 145.83254,58.930344 h -10.0004 v 2.632939 h 10.0004 z" id="path2546"/>
  <path style="fill:none;stroke:#ffffff;stroke-width:0.75;stroke-opacity:1" d="m 165.80725,58.930501 h -10.0004 v 2.632939 h 10.0004 z" id="path2546-3"/>
  <path style="fill:none;stroke:#ffffff;stroke-width:0.75;stroke-opacity:1" d="m 9.3143387,110.98227 v 3.3099 h 4.9544943 v 8.55762 h -3.938776 v -8.65638" id="path1"/>
  <path style="fill:none;stroke:#ffffff;stroke-width:0.75;stroke-opacity:1" d="m 16.109592,120.51796 4.910812,0.83696 v 6.46492 l -4.982869,0.60077" id="path2"/>
  <path style="fill:none;stroke:#ffffff;stroke-width:0.75;stroke-opacity:1" d="m 17.568406,128.30647 v 3.36227 h -1.473531" id="path3"/>
  <path style="fill:none;stroke:#ffffff;stroke-width:0.75;stroke-opacity:1" d="m 17.568531,120.5319 v -3.36227 H 16.095" id="path3-1"/>
  <path style="fill:none;stroke:#ffffff;stroke-width:0.75;stroke-opacity:1" d="m 15.865646,114.25799 7.232305,-3.35412 20.584038,5.92869" id="path4"/>
  <path style="fill:none;stroke:#ffffff;stroke-width:0.75;stroke-opacity:1" d="m 15.730772,134.25527 7.232305,3.35412 20.584038,-5.92869" id="path4-0"/>
  <path style="fill:none;stroke:#ffffff;stroke-width:0.75;stroke-opacity:1" d="m 55.580501,137.21328 v 3.58562" id="path5"/>
  <path style="fill:none;stroke:#ffffff;stroke-width:0.75;stroke-opacity:1" d="m 84.950501,137.14245 v 3.48423" id="path6"/>
  <path style="fill:none;stroke:#ffffff;stroke-width:0.75;stroke-opacity:1" d="M 55.747348,126.81529 H 66.463794" id="path7"/>
  <path style="fill:none;stroke:#ffffff;stroke-width:0.75;stroke-opacity:1" d="m 85.039626,129.31 h 7.223404 v 0.5954 h 3.785734 V 129.31 h 6.464276" id="path8"/>
  <path style="fill:none;stroke:#ffffff;stroke-width:0.75;stroke-opacity:1" d="m 94.15147,130.07565 v 10.64237" id="path9"/>
  <path style="fill:none;stroke:#ffffff;stroke-width:0.75;stroke-opacity:1" d="m 87.763529,128.03507 h -2.976754 v -2.84815 h 3.035546" id="path10"/>
  <path style="fill:none;stroke:#ffffff;stroke-width:0.75;stroke-opacity:1" d="m 73.681375,111.0655 v 12.71772" id="path11"/>
  <path style="fill:none;stroke:#ffffff;stroke-width:0.75;stroke-opacity:1" d="M 73.742289,110.7345 H 87.945872" id="path12"/>
  <path style="fill:none;stroke:#ffffff;stroke-width:0.75;stroke-opacity:1" d="m 102.31835,127.21297 h -9.904829 v -9.79773 h 7.055809 v -5.24061" id="path13"/>
  <path style="fill:none;stroke:#ffffff;stroke-width:0.75;stroke-opacity:1" d="m 102.36091,112.20405 -11.193908,0 v -7.14476 l 11.205098,0" id="path14"/>
  <path style="fill:none;stroke:#ffffff;stroke-width:0.75;stroke-opacity:1" d="m 92.469759,104.86225 v -1.79842 h -1.302757 v -7.76804 l 1.302757,0 v -2.253503 l 9.902831,0" id="path15"/>
  <path style="fill:none;stroke:#ffffff;stroke-width:0.75;stroke-opacity:1" d="M 73.739957,88.920501 H 99.578369 V 79.561356 H 98.29936 v -5.097814" id="path16"/>
  <path style="fill:none;stroke:#ffffff;stroke-width:0.75;stroke-opacity:1" d="M 90.744895,74.617929 V 88.708817" id="path17"/>
  <path style="fill:none;stroke:#ffffff;stroke-width:0.75;stroke-opacity:1" d="M 85.99864,88.916406 V 74.530318" id="path18"/>
  <path style="fill:none;stroke:#ffffff;stroke-width:0.75;stroke-opacity:1" d="m 182.48053,59.546435 v 5.752309" id="path19"/>
  <path style="fill:none;stroke:#ffffff;stroke-width:0.75;stroke-opacity:1" d="m 179.26906,59.703332 v 5.551635" id="path20"/>
  <path style="fill:none;stroke:#ffffff;stroke-width:0.75;stroke-opacity:1" d="m 176.82048,75.556877 h 9.38309" id="path21"/>
  <path style="fill:none;stroke:#ffffff;stroke-width:0.75;stroke-opacity:1" d="m 169.58555,88.024086 v 4.900391" id="path22"/>
  <path style="fill:none;stroke:#ffffff;stroke-width:0.75;stroke-opacity:1" d="m 176.593,88.02391 v 4.713731" id="path23"/>
  <path d="m 198.94806,88.585502 19.18693,0" style="fill:none;stroke:#ffffff;stroke-width:0.75;stroke-opacity:1" id="path1-7"/>
  <path style="fill:none;stroke:#ffffff;stroke-width:0.75;stroke-opacity:1" d="m 202.79642,93.20356 v 5.794151" id="path24"/>
  <path style="fill:none;stroke:#ffffff;stroke-width:0.75;stroke-opacity:1" d="m 199.22809,99.102985 h 8.64279 v 11.925145 h -3.93119" id="path25"/>
  <path style="fill:none;stroke:#ffffff;stroke-width:0.75;stroke-opacity:1" d="m 207.99497,106.2045 h -8.84848" id="path26"/>
  <path style="fill:none;stroke:#ffffff;stroke-width:0.75;stroke-opacity:1" d="m 203.90691,106.333 v 13.97628" id="path27"/>
  <path style="fill:none;stroke:#ffffff;stroke-width:0.75;stroke-opacity:1" d="m 199.10329,114.23215 h 4.71696" id="path28"/>
  <path style="fill:none;stroke:#ffffff;stroke-width:0.75;stroke-opacity:1" d="m 203.75404,109.56329 h -4.61838" id="path29"/>
  <path style="fill:none;stroke:#ffffff;stroke-width:0.75;stroke-opacity:1" d="m 208.21981,116.02627 v 4.39851" id="path30"/>
  <path style="fill:none;stroke:#ffffff;stroke-width:0.75;stroke-opacity:1" d="m 212.51856,116.10079 v 4.42034" id="path31"/>
  <path style="fill:none;stroke:#ffffff;stroke-width:0.75;stroke-opacity:1" d="m 216.36051,116.06427 v 4.36333" id="path32"/>
  <path style="fill:none;stroke:#ffffff;stroke-width:0.75;stroke-opacity:1" d="m 217.39102,111.85576 h 3.66637" id="path33"/>
  <path style="fill:none;stroke:#ffffff;stroke-width:0.75;stroke-opacity:1" d="m 220.9017,107.63404 h -3.43226" id="path34"/>
  <path style="fill:none;stroke:#ffffff;stroke-width:0.75;stroke-opacity:1" d="m 217.49491,103.74436 h 3.50224" id="path35"/>
  <path style="fill:none;stroke:#ffffff;stroke-width:0.75;stroke-opacity:1" d="m 215.91568,103.78133 h -6.14561 v 10.27259 h 6.14561 z" id="path36"/>
  <path style="fill:none;stroke:#ffffff;stroke-width:0.75;stroke-opacity:1" d="m 210.11363,109.07185 h 5.57715" id="path37"/>
  <path style="fill:none;stroke:#ffffff;stroke-width:0.75;stroke-opacity:1" d="m 213.05471,109.23965 v 4.57624" id="path38"/>
  <path style="fill:none;stroke:#ffffff;stroke-width:0.75;stroke-opacity:1" d="m 212.70026,111.50774 h -2.65232" id="path39"/>
  <path style="fill:none;stroke:#ffffff;stroke-width:0.75;stroke-opacity:1" d="m 210.32662,59.591634 v 7.047117" id="path40"/>
  <path style="fill:none;stroke:#ffffff;stroke-width:0.75;stroke-opacity:1" d="M 221.49274,53.724001 H 206.29949" id="path41"/>
  <path style="fill:none;stroke:#ffffff;stroke-width:0.75;stroke-opacity:1" d="m 221.33886,50.248903 h -5.51687 v 9.082387" id="path42"/>
  <path style="fill:none;stroke:#ffffff;stroke-width:0.75;stroke-opacity:1" d="m 208.60187,55.288569 v -3.844946 h 2.67068 v 3.907957" id="path43"/>
  <path style="fill:none;stroke:#ffffff;stroke-width:0.75;stroke-opacity:1" d="m 213.12393,53.996694 v 1.474804 h -6.24808 v -1.43109" id="path44"/>
  <path style="fill:none;stroke:#ffffff;stroke-width:0.75;stroke-opacity:1" d="M 210.17299,1.2339427 V 13.938993" id="path45"/>
  <path style="fill:none;stroke:#ffffff;stroke-width:0.75;stroke-opacity:1" d="m 131.79091,88.236276 v 4.194578" id="path46"/>
  <path style="fill:none;stroke:#ffffff;stroke-width:0.75;stroke-opacity:1" d="m 114.70327,79.686167 h 7.58419" id="path47"/>
  <path style="fill:none;stroke:#ffffff;stroke-width:0.75;stroke-opacity:1" d="m 122.22578,75.71749 h -7.43269" id="path48"/>
  <path style="fill:none;stroke:#ffffff;stroke-width:0.75;stroke-opacity:1" d="m 122.31376,88.374794 h -7.56392" id="path49"/>
  <path style="fill:none;stroke:#ffffff;stroke-width:0.75;stroke-opacity:1" d="M 129.66023,70.790158 V 87.864329" id="path50"/>
  <path style="fill:none;stroke:#ffffff;stroke-width:0.75;stroke-opacity:1" d="m 129.57942,80.32339 h 7.94267" id="path51"/>
</svg>
