<?xml version="1.0" encoding="UTF-8" standalone="no"?>
<svg width="444.25552pt" height="283.24118pt" version="1.2" viewBox="0 0 222.12777 141.62059" id="svg2371" xml:space="preserve" xmlns="http://www.w3.org/2000/svg" xmlns:svg="http://www.w3.org/2000/svg">
  <path d="m 0.5020607,129.05583 4.2031,0.0117 -2.2656,11.6016 42.0230003,0.1875 43.52875,0.20287 v -3.52917 h 14.567049 l 0.13845,-26.56798 0.008,-1.5586 0.0664,-15.488005 0.125,-32.887 11.5,0.0508 -0.11719,33.039 -0.0312,7.793005 23.621,0.20312 0.17969,-31.422005 -8.2617,-0.0352 0.043,-10.855 4.1055,0.0234 -0.0352,6.8633 33.65601,0.12891 0.023,-7.1797 4.6055,0.0234 -0.043,10.832 -8.6094,-0.0234 -0.1094,31.891005 22.688,0.0703 0.031,-8.398405 0.1094,-34.48 12.625,0.0351 -0.066,34.613 -0.059,15.484005 -0.043,10.785 22.594,0.29688 0.3242,-119.9100046 -22.438,-0.0703 -0.1641,52.8119996 -12.336,-0.0352 0.023,-7.9844 -71.87575,-0.42577 -0.0234,8.457 -5.9766,-0.0234 -1.8398,-0.0117 -3.9805,-0.0117 0.1875,-41.07 -0.008,-11.9179996 -23.354996,-0.0742 -0.26172,73.6989996 -5.886703,-0.0234 -0.13281,36.762005 -72.9806803,-0.26175 z" fill="#2b2b2e" id="path112" style="fill:none;fill-rule:evenodd;stroke:#fefefd;stroke-opacity:1"/>
  <path style="fill:none;stroke:#fefefd;stroke-width:0.75;stroke-opacity:1" d="M 80.000406,9.0335867 H 103.01328" id="path2419"/>
  <path style="fill:none;stroke:#fefefd;stroke-width:0.75;stroke-opacity:1" d="M 92.063972,0.74474391 V 9.1170494" id="path2420"/>
  <path style="fill:none;stroke:#fefefd;stroke-width:0.75;stroke-opacity:1" d="M 90.262926,9.1498637 V 14.351836" id="path2421"/>
  <path style="fill:none;stroke:#fefefd;stroke-width:0.75;stroke-opacity:1" d="m 80.096485,14.505066 h 15.280058 v 39.25357 h -15.58361" id="path2422"/>
  <path style="fill:none;stroke:#fefefd;stroke-width:0.75;stroke-opacity:1" d="m 90.148371,54.097145 v 4.512634" id="path2423"/>
  <path style="fill:none;stroke:#fefefd;stroke-width:0.75;stroke-opacity:1" d="m 79.905561,58.62422 h 19.64238 v 49.23052 H 73.641553" id="path2424"/>
  <path style="fill:none;stroke:#fefefd;stroke-width:0.75;stroke-opacity:1" d="m 74.030724,87.997986 h 8.856113 v 5.931777 h -8.836433" id="path2425"/>
  <path style="fill:none;stroke:#fefefd;stroke-width:0.75;stroke-opacity:1" d="M 73.950756,96.948723 H 77.82028 V 94.133665" id="path2426"/>
  <path style="fill:none;stroke:#fefefd;stroke-width:0.75;stroke-opacity:1" d="M 79.971715,88.148714 V 93.77485" id="path2427"/>
  <path style="fill:none;stroke:#fefefd;stroke-width:0.75;stroke-opacity:1" d="M 79.979252,90.736214 H 83.12947" id="path2428"/>
  <path style="fill:none;stroke:#fefefd;stroke-width:0.75;stroke-opacity:1" d="m 82.99507,89.761922 h 2.868649" id="path2429"/>
  <path style="fill:none;stroke:#fefefd;stroke-width:0.75;stroke-opacity:1" d="m 83.15815,92.92114 h 2.572215" id="path2430"/>
  <path style="fill:none;stroke:#fefefd;stroke-width:0.75;stroke-opacity:1" d="M 99.425268,88.075862 H 85.778931 v 7.124206 h 13.54878" id="path2431"/>
  <path style="fill:none;stroke:#fefefd;stroke-width:0.75;stroke-opacity:1" d="m 74.043077,78.97 5.660274,0.0072 v -4.460502" id="path2432"/>
  <path style="fill:none;stroke:#fefefd;stroke-width:0.75;stroke-opacity:1" d="m 79.888138,74.263847 h 19.55285" id="path2433"/>
  <path style="fill:none;stroke:#fefefd;stroke-width:0.75;stroke-opacity:1" d="M 79.734865,67.039063 H 99.559619" id="path2434"/>
  <path style="fill:none;stroke:#fefefd;stroke-width:0.75;stroke-opacity:1" d="M 79.773253,43.19597 H 95.382411" id="path2435"/>
  <path style="fill:none;stroke:#fefefd;stroke-width:0.75;stroke-opacity:1" d="M 95.076194,39.162275 H 80.045218" id="path2436"/>
  <path style="fill:none;stroke:#fefefd;stroke-width:0.75;stroke-opacity:1" d="m 89.554214,39.453421 v 3.550875" id="path2437"/>
  <path style="fill:none;stroke:#fefefd;stroke-width:0.75;stroke-opacity:1" d="M 79.996885,28.646013 H 95.196228" id="path2438"/>
  <path style="fill:none;stroke:#fefefd;stroke-width:0.75;stroke-opacity:1" d="M 95.193599,21.41882 H 79.983846" id="path2439"/>
  <path style="fill:none;stroke:#fefefd;stroke-width:0.75;stroke-opacity:1" d="m 85.446801,21.596937 v 2.175571 h 3.461921 V 21.59557" id="path2440"/>
  <path style="fill:none;stroke:#fefefd;stroke-width:0.75;stroke-opacity:1" d="M 98.312984,9.3112592 V 47.620903 h 4.702776" id="path2441"/>
  <path style="fill:none;stroke:#fefefd;stroke-width:0.75;stroke-opacity:1" d="M 102.71407,41.97542 H 98.497908" id="path2442"/>
  <path style="fill:none;stroke:#fefefd;stroke-width:0.75;stroke-opacity:1" d="m 98.405568,34.987088 h 4.406702" id="path2443"/>
  <path style="fill:none;stroke:#fefefd;stroke-width:0.75;stroke-opacity:1" d="M 102.87041,25.38757 H 98.346449" id="path2444"/>
  <path style="fill:none;stroke:#fefefd;stroke-width:0.75;stroke-opacity:1" d="m 98.330571,20.679663 h 4.836399" id="path2445"/>
  <path style="fill:none;stroke:#fefefd;stroke-width:0.75;stroke-opacity:1" d="m 98.440746,14.869287 h 4.678104" id="path2446"/>
  <path style="fill:none;stroke:#fefefd;stroke-width:0.75;stroke-opacity:1" d="m 73.870873,111.06573 h 3.23361 v 2.22769 H 66.648891" id="path2447"/>
  <path style="fill:none;stroke:#fefefd;stroke-width:0.75;stroke-opacity:1" d="m 66.655922,111.32274 v 3.23843 H 58.94348 v -3.19234" id="path2448"/>
  <path style="fill:none;stroke:#fefefd;stroke-width:0.75;stroke-opacity:1" d="m 69.012253,111.33889 v 1.9574" id="path2449"/>
  <path style="fill:none;stroke:#fefefd;stroke-width:0.75;stroke-opacity:1" d="m 55.580713,111.19319 v 26.04739 h -30.94702 v -3.19598" id="path2450"/>
  <path style="fill:none;stroke:#fefefd;stroke-width:0.75;stroke-opacity:1" d="m 22.384774,113.9486 0,2.90615 v 17.15017" id="path2451"/>
  <path style="fill:none;stroke:#fefefd;stroke-width:0.75;stroke-opacity:1" d="m 24.976907,111.19751 v 5.74113 H 22.69138" id="path2453"/>
  <path style="fill:none;stroke:#fefefd;stroke-width:0.75;stroke-opacity:1" d="m 16.188876,121.90093 h 6.015076" id="path2454"/>
  <path style="fill:none;stroke:#fefefd;stroke-width:0.75;stroke-opacity:1" d="m 15.929261,129.16354 h 9.261919 v 5.14886 h -9.346149 v -20.73427 h 9.108261" id="path2455"/>
  <path style="fill:none;stroke:#fefefd;stroke-width:0.75;stroke-opacity:1" d="m 19.007803,129.34885 v 4.75321" id="path2456"/>
  <path style="fill:none;stroke:#fefefd;stroke-width:0.75;stroke-opacity:1" d="m 12.746809,111.1794 v 17.76429 H 4.8449598" id="path2457"/>
  <path style="fill:none;stroke:#fefefd;stroke-width:0.75;stroke-opacity:1" d="M 9.0700026,128.95119 V 124.4678 H 12.511048" id="path2458"/>
  <path style="fill:none;stroke:#fefefd;stroke-width:0.75;stroke-opacity:1" d="m 12.508133,112.88965 h -3.36319 v 10.52599 h 4.955203 v -9.63898 h -1.29414" id="path2459"/>
  <path style="fill:none;stroke:#fefefd;stroke-width:0.75;stroke-opacity:1" d="M 9.3831468,118.05063 H 12.620859" id="path2460"/>
  <path style="fill:none;stroke:#fefefd;stroke-width:0.75;stroke-opacity:1" d="m 43.870662,117.69961 v -6.59554" id="path2461"/>
  <path style="fill:none;stroke:#fefefd;stroke-width:0.75;stroke-opacity:1" d="m 34.91799,111.27947 v 1.37798 h 6.997636 v -1.60111" id="path2462"/>
  <path style="fill:none;stroke:#fefefd;stroke-width:0.75;stroke-opacity:1" d="m 35.618544,112.6573 8.222561,2.69036" id="path2463"/>
  <path style="fill:none;stroke:#fefefd;stroke-width:0.75;stroke-opacity:1" d="m 43.870673,130.25029 v 6.59554" id="path2461-6"/>
  <path style="fill:none;stroke:#fefefd;stroke-width:0.75;stroke-opacity:1" d="m 34.918001,136.67043 v -1.37798 h 6.997636 v 1.60111" id="path2462-7"/>
  <path style="fill:none;stroke:#fefefd;stroke-width:0.75;stroke-opacity:1" d="m 35.618554,135.2926 8.222562,-2.69036" id="path2463-5"/>
  <path style="fill:none;stroke:#fefefd;stroke-width:0.75;stroke-opacity:1" d="m 84.950447,113.74348 v 23.37851 H 58.915408 V 115.97838 H 84.94567" id="path2464"/>
  <path style="fill:none;stroke:#fefefd;stroke-width:0.75;stroke-opacity:1" d="m 84.129977,113.75377 0,-2.9442 h -3.153142 v 13.06428" id="path2465"/>
  <path style="fill:none;stroke:#fefefd;stroke-width:0.75;stroke-opacity:1" d="M 84.683357,123.92922 H 59.166163" id="path2466"/>
  <path style="fill:none;stroke:#fefefd;stroke-width:0.75;stroke-opacity:1" d="m 66.610761,124.09027 v 12.77942" id="path2467"/>
  <path style="fill:none;stroke:#fefefd;stroke-width:0.75;stroke-opacity:1" d="m 59.153278,132.35873 h 7.226591" id="path2468"/>
  <path style="fill:none;stroke:#fefefd;stroke-width:0.75;stroke-opacity:1" d="M 66.603013,127.72154 H 59.139834" id="path2469"/>
  <path style="fill:none;stroke:#fefefd;stroke-width:0.75;stroke-opacity:1" d="m 59.034797,119.89414 h 21.7188" id="path2470"/>
  <path style="fill:none;stroke:#fefefd;stroke-width:0.75;stroke-opacity:1" d="m 81.210343,118.85965 h 3.483098" id="path2471"/>
  <path style="fill:none;stroke:#fefefd;stroke-width:0.75;stroke-opacity:1" d="m 81.262255,113.53539 h 4.102485 v -1.32281 h -1.08855" id="path2472"/>
  <path style="fill:none;stroke:#fefefd;stroke-width:0.75;stroke-opacity:1" d="m 71.126087,120.09055 v 3.69387" id="path2473"/>
  <path style="fill:none;stroke:#fefefd;stroke-width:0.75;stroke-opacity:1" d="m 74.595853,120.11182 v 3.80355" id="path2474"/>
  <path style="fill:none;stroke:#fefefd;stroke-width:0.75;stroke-opacity:1" d="m 77.895478,120.07843 v 3.84959" id="path2475"/>
  <path style="fill:none;stroke:#fefefd;stroke-width:0.75;stroke-opacity:1" d="m 65.004737,120.13432 v 3.6944" id="path2476"/>
  <path style="fill:none;stroke:#fefefd;stroke-width:0.75;stroke-opacity:1" d="m 61.362545,116.20581 v 3.66873" id="path2477"/>
  <path style="fill:none;stroke:#fefefd;stroke-width:0.75;stroke-opacity:1" d="m 69.407987,115.95552 v 3.82182" id="path2478"/>
  <path style="fill:none;stroke:#fefefd;stroke-width:0.75;stroke-opacity:1" d="m 73.388526,116.23692 v 3.50246" id="path2479"/>
  <path style="fill:none;stroke:#fefefd;stroke-width:0.75;stroke-opacity:1" d="M 102.3411,110.73469 H 87.866766 v 26.69204" id="path2480"/>
  <path style="fill:none;stroke:#fefefd;stroke-width:0.75;stroke-opacity:1" d="M 102.37296,123.10313 H 88.107141" id="path2481"/>
  <path style="fill:none;stroke:#fefefd;stroke-width:0.75;stroke-opacity:1" d="M 96.200193,122.90066 V 111.05329" id="path2482"/>
  <path style="fill:none;stroke:#fefefd;stroke-width:0.75;stroke-opacity:1" d="m 96.287808,120.18532 h 5.998282" id="path2483"/>
  <path style="fill:none;stroke:#fefefd;stroke-width:0.75;stroke-opacity:1" d="m 114.39439,92.625261 h 9.5643 v 0.752824 l 5.70282,0 V 70.576303" id="path2484"/>
  <path style="fill:none;stroke:#fefefd;stroke-width:0.75;stroke-opacity:1" d="m 126.02895,93.399891 v 8.400659" id="path2485"/>
  <path style="fill:none;stroke:#fefefd;stroke-width:0.75;stroke-opacity:1" d="m 129.8057,92.657129 h 7.87472" id="path2486"/>
  <path style="fill:none;stroke:#fefefd;stroke-width:0.75;stroke-opacity:1" d="m 137.90091,87.903122 h -8.14415" id="path2487"/>
  <path style="fill:none;stroke:#fefefd;stroke-width:0.75;stroke-opacity:1" d="m 122.47397,64.682761 3.09442,0 0,-3.726588 h -10.8444" id="path2488"/>
  <path style="fill:none;stroke:#fefefd;stroke-width:0.75;stroke-opacity:1" d="m 118.77591,60.949355 v 4.868367" id="path2489"/>
  <path style="fill:none;stroke:#fefefd;stroke-width:0.75;stroke-opacity:1" d="m 122.45873,61.014857 v 26.92728 h -7.94583" id="path2490"/>
  <path style="fill:none;stroke:#fefefd;stroke-width:0.75;stroke-opacity:1" d="m 122.47924,65.776764 h -7.7371" id="path2491"/>
  <path style="fill:none;stroke:#fefefd;stroke-width:0.75;stroke-opacity:1" d="M 115.06983,53.567154 H 146.7665 V 45.730512" id="path2492"/>
  <path style="fill:none;stroke:#fefefd;stroke-width:0.75;stroke-opacity:1" d="m 140.64009,45.615609 v 7.899172" id="path2493"/>
  <path style="fill:none;stroke:#fefefd;stroke-width:0.75;stroke-opacity:1" d="m 140.70801,48.525346 5.90185,-0.170133" id="path2494"/>
  <path style="fill:none;stroke:#fefefd;stroke-width:0.75;stroke-opacity:1" d="m 125.51434,45.51245 v 8.0109" id="path2495"/>
  <path style="fill:none;stroke:#fefefd;stroke-width:0.75;stroke-opacity:1" d="m 155.42144,45.628886 v 8.059943 h 31.14421" id="path2496"/>
  <path style="fill:none;stroke:#fefefd;stroke-width:0.75;stroke-opacity:1" d="M 161.38746,53.573446 V 45.742059" id="path2497"/>
  <path style="fill:none;stroke:#fefefd;stroke-width:0.75;stroke-opacity:1" d="m 161.59209,48.839641 h 24.93862" id="path2498"/>
  <path style="fill:none;stroke:#fefefd;stroke-width:0.75;stroke-opacity:1" d="m 183.49484,49.139956 v 4.497777" id="path2499"/>
  <path style="fill:none;stroke:#fefefd;stroke-width:0.75;stroke-opacity:1" d="m 183.51836,50.769935 h 3.21477" id="path2500"/>
  <path style="fill:none;stroke:#fefefd;stroke-width:0.75;stroke-opacity:1" d="m 181.12078,45.995352 v 2.572257" id="path2501"/>
  <path style="fill:none;stroke:#fefefd;stroke-width:0.75;stroke-opacity:1" d="m 174.31703,45.927717 v 2.645866" id="path2502"/>
  <path style="fill:none;stroke:#fefefd;stroke-width:0.75;stroke-opacity:1" d="m 167.9022,45.864267 v 2.717014" id="path2503"/>
  <path style="fill:none;stroke:#fefefd;stroke-width:0.75;stroke-opacity:1" d="m 199.33737,53.723845 h 7.01962 l 0.002,-12.742438 h -3.65538 v -1.892696 h -3.31832" id="path2504"/>
  <path style="fill:none;stroke:#fefefd;stroke-width:0.75;stroke-opacity:1" d="m 199.37423,50.257423 h 3.3504 v 3.28852" id="path2505"/>
  <path style="fill:none;stroke:#fefefd;stroke-width:0.75;stroke-opacity:1" d="m 202.72798,50.851269 h 11.44429" id="path2506"/>
  <path style="fill:none;stroke:#fefefd;stroke-width:0.75;stroke-opacity:1" d="m 199.4162,14.038621 h 21.86303" id="path2507"/>
  <path style="fill:none;stroke:#fefefd;stroke-width:0.75;stroke-opacity:1" d="m 217.87474,13.884657 v -1.747112 h -1.44741 V 2.6978282 h 5.15351" id="path2508"/>
  <path style="fill:none;stroke:#fefefd;stroke-width:0.75;stroke-opacity:1" d="M 216.98218,1.2358839 V 2.6539746" id="path2509"/>
  <path style="fill:none;stroke:#fefefd;stroke-width:0.75;stroke-opacity:1" d="m 199.54598,2.9175726 h 4.83247 v 9.2205684 h -1.79085 v 1.70159" id="path2510"/>
  <path style="fill:none;stroke:#fefefd;stroke-width:0.75;stroke-opacity:1" d="M 203.66905,1.1712952 V 2.7279775" id="path2511"/>
  <path style="fill:none;stroke:#fefefd;stroke-width:0.75;stroke-opacity:1" d="m 221.2032,42.545341 h -6.99452 v 24.045098" id="path2512"/>
  <path style="fill:none;stroke:#fefefd;stroke-width:0.75;stroke-opacity:1" d="m 198.90678,59.463151 h 7.04703 l 0,7.259416" id="path2513"/>
  <path style="fill:none;stroke:#fefefd;stroke-width:0.75;stroke-opacity:1" d="m 199.16055,66.729658 h 21.93999" id="path2514"/>
  <path style="fill:none;stroke:#fefefd;stroke-width:0.75;stroke-opacity:1" d="m 221.46692,79.460447 h -3.34775 v 9.124887 h 3.01582" id="path2515"/>
  <path style="fill:none;stroke:#fefefd;stroke-width:0.75;stroke-opacity:1" d="M 221.23415,92.95477 H 198.7964" id="path2516"/>
  <path style="fill:none;stroke:#fefefd;stroke-width:0.75;stroke-opacity:1" d="m 214.6852,93.239084 v 5.4459 h 6.50411" id="path2517"/>
  <path style="fill:none;stroke:#fefefd;stroke-width:0.75;stroke-opacity:1" d="m 217.83023,93.153325 v 2.791373 h 3.23911" id="path2518"/>
  <path style="fill:none;stroke:#fefefd;stroke-width:0.75;stroke-opacity:1" d="m 217.20821,98.976464 v 5.475026 h -18.03319" id="path2519"/>
  <path style="fill:none;stroke:#fefefd;stroke-width:0.75;stroke-opacity:1" d="m 199.06199,112.75602 h 22.09565" id="path2520"/>
  <path style="fill:none;stroke:#fefefd;stroke-width:0.75;stroke-opacity:1" d="M 172.26596,70.472211 V 92.851769" id="path2521"/>
  <path style="fill:none;stroke:#fefefd;stroke-width:0.75;stroke-opacity:1" d="m 171.98997,79.436185 h -8.21095" id="path2522"/>
  <path style="fill:none;stroke:#fefefd;stroke-width:0.75;stroke-opacity:1" d="m 163.59244,83.633728 h 3.78763 v 0.537878 h 2.10771" id="path2523"/>
  <path style="fill:none;stroke:#fefefd;stroke-width:0.75;stroke-opacity:1" d="m 169.69947,79.635313 v 8.138884" id="path2524"/>
  <path style="fill:none;stroke:#fefefd;stroke-width:0.75;stroke-opacity:1" d="m 172.10023,87.873899 h -8.35048" id="path2525"/>
  <path style="fill:none;stroke:#fefefd;stroke-width:0.75;stroke-opacity:1" d="M 163.75355,92.936417 H 185.858" id="path2526"/>
  <path style="fill:none;stroke:#fefefd;stroke-width:0.75;stroke-opacity:1" d="M 186.04093,95.970299 H 169.99439" id="path2527"/>
  <path style="fill:none;stroke:#fefefd;stroke-width:0.75;stroke-opacity:1" d="m 169.96064,93.207062 v 4.213823 h 15.92087" id="path2528"/>
  <path style="fill:none;stroke:#fefefd;stroke-width:0.75;stroke-opacity:1" d="m 180.34776,93.099295 v 2.57874" id="path2529"/>
  <path style="fill:none;stroke:#fefefd;stroke-width:0.75;stroke-opacity:1" d="m 178.40804,93.110181 v 2.742038" id="path2530"/>
  <path style="fill:none;stroke:#fefefd;stroke-width:0.75;stroke-opacity:1" d="M 183.88699,93.225636 V 95.89723" id="path2531"/>
  <path style="fill:none;stroke:#fefefd;stroke-width:0.75;stroke-opacity:1" d="m 173.05077,95.836941 v -2.66217" id="path2532"/>
  <path style="fill:none;stroke:#fefefd;stroke-width:0.75;stroke-opacity:1" d="M 174.24042,97.627364 V 101.9485" id="path2533"/>
  <path style="fill:none;stroke:#fefefd;stroke-width:0.75;stroke-opacity:1" d="m 178.28435,97.656456 v 4.530534" id="path2534"/>
  <path style="fill:none;stroke:#fefefd;stroke-width:0.75;stroke-opacity:1" d="M 180.33734,102.1708 V 97.620779" id="path2535"/>
  <path style="fill:none;stroke:#fefefd;stroke-width:0.75;stroke-opacity:1" d="m 184.66103,97.673748 v 4.362392" id="path2536"/>
  <path style="fill:none;stroke:#fefefd;stroke-width:0.75;stroke-opacity:1" d="m 186.16894,87.931694 h -9.57586 l 0,-28.501519 h 9.71025" id="path2537"/>
  <path style="fill:none;stroke:#fefefd;stroke-width:0.75;stroke-opacity:1" d="m 176.83684,65.343253 h 8.99056" id="path2538"/>
  <path style="fill:none;stroke:#fefefd;stroke-width:0.75;stroke-opacity:1" d="M 186.01485,69.175899 H 176.7222" id="path2539"/>
  <path style="fill:none;stroke:#fefefd;stroke-width:0.75;stroke-opacity:1" d="m 176.73803,73.509047 h 9.27379" id="path2540"/>
  <path style="fill:none;stroke:#fefefd;stroke-width:0.75;stroke-opacity:1" d="m 181.8152,69.478524 v 3.817474" id="path2541"/>
  <path style="fill:none;stroke:#fefefd;stroke-width:0.75;stroke-opacity:1" d="M 186.00641,79.344096 H 181.909 v 8.499045" id="path2542"/>
  <path style="fill:none;stroke:#fefefd;stroke-width:0.75;stroke-opacity:1" d="m 181.60152,84.807876 h -4.84409" id="path2543"/>
  <path style="fill:none;stroke:#fefefd;stroke-width:0.75;stroke-opacity:1" d="m 176.84182,80.383476 h 4.80836" id="path2544"/>
  <path style="fill:none;stroke:#fefefd;stroke-width:0.75;stroke-opacity:1" d="m 182.16734,83.510338 h 3.76138" id="path2545"/>
  <path style="fill:none;stroke:#fefefd;stroke-width:0.75;stroke-opacity:1" d="m 148.7825,58.930344 h -10.0004 v 2.632939 h 10.0004 z" id="path2546"/>
  <path style="fill:none;stroke:#fefefd;stroke-width:0.75;stroke-opacity:1" d="m 163.35356,58.930501 h -10.0004 v 2.632939 h 10.0004 z" id="path2546-3"/>
</svg>
