<?xml version="1.0" encoding="UTF-8" standalone="no"?>
<svg width="444.25668pt" height="283.24118pt" version="1.2" viewBox="0 0 222.12833 141.6206" id="svg2371" xmlns="http://www.w3.org/2000/svg" xmlns:svg="http://www.w3.org/2000/svg">
  <path d="m 0.50203346,129.05583 4.20310004,0.0117 -0.0156,4.4414 -2.2188,-0.0117 -0.0312,7.1719 42.0229995,0.1875 58.077997,0.26172 0.15625,-30.156 0.008,-1.5586 0.0664,-15.488005 0.125,-32.887 11.5,0.0508 -0.11719,33.039 -0.0312,7.793005 23.621,0.20312 0.17969,-31.422005 -8.2617,-0.0352 0.043,-10.855 4.1055,0.0234 -0.0352,6.8633 33.656,0.12891 0.0234,-7.1797 4.6055,0.0234 -0.043,10.832 -8.6094,-0.0234 -0.10938,31.891005 22.688,0.0703 0.0312,-8.398405 0.10938,-34.48 12.625,0.0351 -0.0664,34.613 -0.0586,15.484005 -0.043,10.785 22.594,0.29688 0.32422,-119.9100046 -22.438,-0.0703 -0.16406,52.8119996 -12.336,-0.0352 0.0234,-7.9844 -30.117,-0.0937 0.008,-3.6406 -11.234,-0.0469 h -1.0352 l -0.0156,3.4609 -29.484,-0.10547 -0.0234,8.457 -5.9766,-0.0234 -1.8398,-0.0117 -3.9805,-0.0117 0.1875,-41.07 -0.008,-11.9179996 -23.354997,-0.0742 -0.26172,73.6989996 -5.8867,-0.0234 -0.13281,36.762005 -44.078,-0.15625 -0.17578,-2.4336 -18.844,-0.0703 0.0859,2.4336 -9.96879954,-0.0352 z" fill="#2b2b2e" id="path112" style="fill:none;stroke:#fff;stroke-opacity:1"/>
</svg>
